<svg viewBox="0 0 198 70" fill="none" xmlns="http://www.w3.org/2000/svg">
<rect y="35" width="198" height="13" rx="6.5" fill="#9DEE86"/>
<g filter="url(#filter0_d_36_24)">
<path d="M42.0096 18.224H47.2416V22.16C47.2416 30.992 43.4016 38.768 34.9536 41.696L31.5456 36.656C38.9856 34.16 42.0096 28.208 42.0096 22.16V18.224ZM43.3056 18.224H48.4896V22.784C48.4896 28.112 51.4656 33.296 58.4256 35.456L55.1136 40.4C47.0976 37.712 43.3056 30.8 43.3056 22.784V18.224ZM60.8736 15.824H67.2576V42.08H60.8736V15.824ZM65.4816 26.096H73.1616V31.376H65.4816V26.096ZM52.7616 43.088C61.9776 43.088 67.7856 46.304 67.7856 51.68C67.7856 57.104 61.9776 60.272 52.7616 60.272C43.4976 60.272 37.6896 57.104 37.6896 51.68C37.6896 46.304 43.4976 43.088 52.7616 43.088ZM52.7616 48.032C47.0976 48.032 44.0256 49.232 44.0256 51.68C44.0256 54.176 47.0976 55.328 52.7616 55.328C58.4256 55.328 61.4496 54.176 61.4496 51.68C61.4496 49.232 58.4256 48.032 52.7616 48.032ZM88.7579 17.84H94.0379V22.112C94.0379 30.512 89.9579 38.144 81.2699 40.928L78.1499 35.888C85.6379 33.488 88.7579 27.728 88.7579 22.112V17.84ZM90.0539 17.84H95.2859V22.112C95.2859 27.584 98.3579 32.96 105.606 35.168L102.486 40.16C93.9899 37.472 90.0539 30.368 90.0539 22.112V17.84ZM84.9659 44.288H115.302V60.272H108.87V49.376H84.9659V44.288ZM108.87 15.824H115.302V42.32H108.87V15.824ZM147.122 25.28H157.442V30.416H147.122V25.28ZM134.594 18.56H139.73V23.36C139.73 32.432 135.938 40.16 127.538 43.232L124.178 38.24C131.522 35.792 134.594 29.648 134.594 23.36V18.56ZM135.986 18.56H141.074V23.408C141.074 29.12 144.002 34.832 151.01 37.232L147.602 42.128C139.634 39.248 135.986 31.808 135.986 23.408V18.56ZM155.234 15.872H161.618V48.656H155.234V15.872ZM132.194 54.416H162.578V59.504H132.194V54.416ZM132.194 45.344H138.626V57.248H132.194V45.344Z" fill="current"/>
</g>
<defs>
<filter id="filter0_d_36_24" x="27.5456" y="15.824" width="139.033" height="52.448" filterUnits="userSpaceOnUse" color-interpolation-filters="sRGB">
<feFlood flood-opacity="0" result="BackgroundImageFix"/>
<feColorMatrix in="SourceAlpha" type="matrix" values="0 0 0 0 0 0 0 0 0 0 0 0 0 0 0 0 0 0 127 0" result="hardAlpha"/>
<feOffset dy="4"/>
<feGaussianBlur stdDeviation="2"/>
<feComposite in2="hardAlpha" operator="out"/>
<feColorMatrix type="matrix" values="0 0 0 0 0 0 0 0 0 0 0 0 0 0 0 0 0 0 0.5 0"/>
<feBlend mode="normal" in2="BackgroundImageFix" result="effect1_dropShadow_36_24"/>
<feBlend mode="normal" in="SourceGraphic" in2="effect1_dropShadow_36_24" result="shape"/>
</filter>
</defs>
</svg>
