<svg viewBox="0 0 194 70" fill="none" xmlns="http://www.w3.org/2000/svg">
<rect y="35" width="194" height="13" rx="6.5" fill="#9DEE86"/>
<g filter="url(#filter0_d_38_34)">
<path d="M40.0096 18.224H45.2416V22.16C45.2416 30.992 41.4016 38.768 32.9536 41.696L29.5456 36.656C36.9856 34.16 40.0096 28.208 40.0096 22.16V18.224ZM41.3056 18.224H46.4896V22.784C46.4896 28.112 49.4656 33.296 56.4256 35.456L53.1136 40.4C45.0976 37.712 41.3056 30.8 41.3056 22.784V18.224ZM58.8736 15.824H65.2576V42.08H58.8736V15.824ZM63.4816 26.096H71.1616V31.376H63.4816V26.096ZM50.7616 43.088C59.9776 43.088 65.7856 46.304 65.7856 51.68C65.7856 57.104 59.9776 60.272 50.7616 60.272C41.4976 60.272 35.6896 57.104 35.6896 51.68C35.6896 46.304 41.4976 43.088 50.7616 43.088ZM50.7616 48.032C45.0976 48.032 42.0256 49.232 42.0256 51.68C42.0256 54.176 45.0976 55.328 50.7616 55.328C56.4256 55.328 59.4496 54.176 59.4496 51.68C59.4496 49.232 56.4256 48.032 50.7616 48.032ZM86.7579 17.84H92.0379V22.112C92.0379 30.512 87.9579 38.144 79.2699 40.928L76.1499 35.888C83.6379 33.488 86.7579 27.728 86.7579 22.112V17.84ZM88.0539 17.84H93.2859V22.112C93.2859 27.584 96.3579 32.96 103.606 35.168L100.486 40.16C91.9899 37.472 88.0539 30.368 88.0539 22.112V17.84ZM82.9659 44.288H113.302V60.272H106.87V49.376H82.9659V44.288ZM106.87 15.824H113.302V42.32H106.87V15.824ZM145.122 25.28H155.442V30.416H145.122V25.28ZM132.594 18.56H137.73V23.36C137.73 32.432 133.938 40.16 125.538 43.232L122.178 38.24C129.522 35.792 132.594 29.648 132.594 23.36V18.56ZM133.986 18.56H139.074V23.408C139.074 29.12 142.002 34.832 149.01 37.232L145.602 42.128C137.634 39.248 133.986 31.808 133.986 23.408V18.56ZM153.234 15.872H159.618V48.656H153.234V15.872ZM130.194 54.416H160.578V59.504H130.194V54.416ZM130.194 45.344H136.626V57.248H130.194V45.344Z" fill="#F2F2F2"/>
</g>
<defs>
<filter id="filter0_d_38_34" x="25.5456" y="15.824" width="139.033" height="52.448" filterUnits="userSpaceOnUse" color-interpolation-filters="sRGB">
<feFlood flood-opacity="0" result="BackgroundImageFix"/>
<feColorMatrix in="SourceAlpha" type="matrix" values="0 0 0 0 0 0 0 0 0 0 0 0 0 0 0 0 0 0 127 0" result="hardAlpha"/>
<feOffset dy="4"/>
<feGaussianBlur stdDeviation="2"/>
<feComposite in2="hardAlpha" operator="out"/>
<feColorMatrix type="matrix" values="0 0 0 0 0 0 0 0 0 0 0 0 0 0 0 0 0 0 0.5 0"/>
<feBlend mode="normal" in2="BackgroundImageFix" result="effect1_dropShadow_38_34"/>
<feBlend mode="normal" in="SourceGraphic" in2="effect1_dropShadow_38_34" result="shape"/>
</filter>
</defs>
</svg>
