<svg viewBox="0 0 260 106" fill="none" xmlns="http://www.w3.org/2000/svg">
<rect y="44" width="260" height="18" rx="9" fill="#9DEE86"/>
<path d="M54.6457 23.632H61.6217V28.88C61.6217 40.656 56.5017 51.024 45.2377 54.928L40.6937 48.208C50.6137 44.88 54.6457 36.944 54.6457 28.88V23.632ZM56.3737 23.632H63.2857V29.712C63.2857 36.816 67.2537 43.728 76.5337 46.608L72.1177 53.2C61.4297 49.616 56.3737 40.4 56.3737 29.712V23.632ZM79.7977 20.432H88.3097V55.44H79.7977V20.432ZM85.9417 34.128H96.1817V41.168H85.9417V34.128ZM68.9817 56.784C81.2697 56.784 89.0137 61.072 89.0137 68.24C89.0137 75.472 81.2697 79.696 68.9817 79.696C56.6297 79.696 48.8857 75.472 48.8857 68.24C48.8857 61.072 56.6297 56.784 68.9817 56.784ZM68.9817 63.376C61.4297 63.376 57.3337 64.976 57.3337 68.24C57.3337 71.568 61.4297 73.104 68.9817 73.104C76.5337 73.104 80.5657 71.568 80.5657 68.24C80.5657 64.976 76.5337 63.376 68.9817 63.376ZM116.977 23.12H124.017V28.816C124.017 40.016 118.577 50.192 106.993 53.904L102.833 47.184C112.817 43.984 116.977 36.304 116.977 28.816V23.12ZM118.705 23.12H125.681V28.816C125.681 36.112 129.777 43.28 139.441 46.224L135.281 52.88C123.953 49.296 118.705 39.824 118.705 28.816V23.12ZM111.921 58.384H152.369V79.696H143.793V65.168H111.921V58.384ZM143.793 20.432H152.369V55.76H143.793V20.432ZM194.796 33.04H208.556V39.888H194.796V33.04ZM178.092 24.08H184.94V30.48C184.94 42.576 179.884 52.88 168.684 56.976L164.204 50.32C173.996 47.056 178.092 38.864 178.092 30.48V24.08ZM179.948 24.08H186.732V30.544C186.732 38.16 190.636 45.776 199.98 48.976L195.436 55.504C184.812 51.664 179.948 41.744 179.948 30.544V24.08ZM205.612 20.496H214.124V64.208H205.612V20.496ZM174.892 71.888H215.404V78.672H174.892V71.888ZM174.892 59.792H183.468V75.664H174.892V59.792Z" fill="#111421"/>
</svg>
